<svg width="221" height="90" viewBox="0 0 221 90" fill="none" xmlns="http://www.w3.org/2000/svg">
<path opacity="0.1" d="M138.767 7.04825C137.906 6.81275 137.049 6.82226 136.068 6.83313C135.823 6.83585 135.578 6.83856 135.333 6.84128C136.546 5.72516 137.759 4.60904 138.602 3.25199C138.843 2.88176 138.349 2.51968 138.107 2.76741C136.648 3.88624 135.314 5.12622 133.98 6.36621C133.962 4.77365 133.944 3.1811 133.927 1.58855C133.918 0.853528 132.816 0.865753 132.824 1.60078C132.841 3.19333 132.86 4.90838 132.878 6.50094C131.763 5.41063 130.649 4.44282 129.535 3.47501C129.041 3.11293 128.435 3.73225 128.93 4.09433C129.798 5.06485 130.667 6.03537 131.658 7.00454C130.433 7.01812 129.207 7.0317 127.983 7.16779C127.493 7.17323 127.501 7.90825 127.991 7.90281C129.463 8.00902 130.811 7.99408 132.159 7.97913C131.067 8.97139 129.976 10.0862 129.008 11.1996C128.524 11.695 129.266 12.2994 129.752 11.9264C130.844 10.9342 131.937 10.0644 132.907 9.07352C132.922 10.4211 132.938 11.8911 133.198 13.2359C133.201 13.4809 133.691 13.4755 133.811 13.2291C134.042 12.0014 134.027 10.6538 134.012 9.3063C134.382 9.54723 134.632 9.91203 135.002 10.153C135.744 10.7573 136.486 11.3617 137.227 11.8436C137.475 12.0859 137.838 11.7143 137.59 11.472C136.969 10.7437 136.471 10.0142 135.85 9.28593C135.477 8.79998 134.983 8.43791 134.611 8.07447C135.224 8.06768 135.714 8.06224 136.327 8.05545C137.307 8.04459 138.042 8.03644 139.02 7.78056C139.141 7.6567 139.136 7.16668 138.767 7.04825Z" fill="#030229"/>
<path opacity="0.1" d="M12.0117 68.8696C11.1512 68.6341 10.2934 68.6437 9.31306 68.6545C9.06798 68.6572 8.8229 68.66 8.57781 68.6627C9.79101 67.5466 11.0042 66.4304 11.8471 65.0734C12.0881 64.7032 11.5938 64.3411 11.3515 64.5888C9.76928 65.5865 8.43626 66.949 7.10188 68.189C7.08423 66.5964 7.06658 65.0039 7.04892 63.4113C7.04077 62.6763 5.9379 62.6885 5.94605 63.4235C5.9637 65.0161 5.98271 66.7311 6.00037 68.3237C4.88527 67.2334 3.77154 66.2656 2.6578 65.2978C2.16356 64.9357 1.55764 65.555 2.05188 65.9171C2.92053 66.8876 3.78919 67.8581 4.78038 68.8273C3.55497 68.8409 2.32955 68.8545 1.1055 68.9905C0.615332 68.996 0.62348 69.731 1.11365 69.7256C2.5855 69.8318 3.93346 69.8168 5.28141 69.8019C4.1894 70.7941 3.09875 71.9089 2.13064 73.0223C1.64591 73.5178 2.38795 74.1221 2.87404 73.7492C3.96605 72.7569 5.05942 71.8872 6.02888 70.8963C6.04382 72.2438 6.06012 73.7139 6.32014 75.0587C6.32285 75.3037 6.81302 75.2983 6.93285 75.0519C7.16435 73.8241 7.14941 72.4766 7.13447 71.1291C7.50481 71.37 7.75397 71.7348 8.12431 71.9757C8.86635 72.5801 9.60839 73.1845 10.3491 73.6663C10.5969 73.9086 10.9604 73.537 10.7126 73.2947C10.0918 72.5665 9.59345 71.8369 8.9726 71.1087C8.59954 70.6227 8.1053 70.2607 7.7336 69.8972C8.34631 69.8904 8.83648 69.885 9.44918 69.8782C10.4295 69.8673 11.1648 69.8592 12.1424 69.6033C12.2636 69.4794 12.2581 68.9894 12.0117 68.8696Z" fill="#030229"/>
<path d="M32.6421 28.3322C31.286 27.6121 30.0524 26.8907 29.0585 25.6765C27.9407 24.3412 27.4329 22.7541 26.6799 21.1697C26.6799 21.1697 26.6786 21.0472 26.5561 21.0485L26.4335 21.0499C26.4335 21.0499 26.4335 21.0499 26.3123 21.1737C26.3123 21.1737 26.3123 21.1737 26.3137 21.2962C25.9827 24.6079 24.0479 26.9572 21.6201 29.067C21.4989 29.1908 21.5016 29.4358 21.6255 29.557C24.335 30.7521 26.2098 34.0394 27.0975 36.7249C27.2228 36.9686 27.5904 36.9645 27.7102 36.7182C28.1827 35.1202 28.534 33.646 29.3755 32.1665C30.217 30.6869 31.3077 29.5722 32.6461 28.6997C32.7673 28.5758 32.7646 28.3308 32.6421 28.3322Z" fill="#605BFF"/>
<path d="M219.895 65.0816C218.539 64.3615 217.305 63.6401 216.434 62.4246C215.316 61.0892 214.808 59.5021 214.055 57.9177C214.055 57.9177 214.054 57.7952 213.931 57.7966L213.809 57.7979C213.809 57.7979 213.809 57.7979 213.688 57.9218C213.688 57.9218 213.688 57.9218 213.689 58.0443C213.358 61.356 211.423 63.7053 208.996 65.815C208.874 65.9389 208.877 66.1839 209.001 66.305C211.71 67.5002 213.585 70.7874 214.473 73.473C214.598 73.7167 214.966 73.7126 215.086 73.4662C215.558 71.8682 215.909 70.3941 216.751 68.9145C217.592 67.435 218.683 66.3202 220.022 65.4478C220.022 65.4478 220.019 65.2028 219.895 65.0816Z" fill="#605BFF"/>
<path d="M130.095 34.9573C129.109 34.4782 128.368 33.9963 127.624 33.1469C126.877 32.175 126.498 31.0766 125.873 29.9808C125.873 29.9808 125.873 29.9808 125.75 29.9822L125.628 29.9836C125.628 29.9836 125.628 29.9836 125.629 30.1061C125.41 32.4363 124.079 34.0438 122.38 35.5329C122.259 35.6568 122.26 35.7793 122.383 35.7779C124.353 36.6137 125.604 38.9277 126.237 40.7585C126.24 41.0035 126.608 40.9994 126.605 40.7544C126.838 39.6491 127.193 38.5425 127.795 37.5557C128.397 36.5689 129.124 35.8257 130.098 35.2023C130.22 35.201 130.217 34.956 130.095 34.9573Z" fill="#605BFF"/>
<path d="M98.8385 56.8052C97.1135 55.9666 95.756 55.1241 94.6368 53.6662C93.2698 51.9661 92.6368 50.1354 91.7573 48.1848C91.7573 48.1848 91.7559 48.0623 91.6334 48.0637L91.5108 48.065C91.5108 48.065 91.3883 48.0664 91.3896 48.1889L91.391 48.3114C90.9443 52.2369 88.6486 55.2029 85.7348 57.6855C85.6136 57.8094 85.6176 58.1769 85.8627 58.1742C89.1876 59.6076 91.4368 63.5032 92.4538 66.8C92.5804 67.1661 93.0706 67.1607 93.1891 66.7918C93.6589 64.9488 94.2512 63.1045 95.2125 61.3786C96.1739 59.6526 97.5069 58.2901 99.2116 57.2911C98.9665 57.2938 99.085 56.9249 98.8385 56.8052Z" fill="#605BFF"/>
<path d="M69.452 25.9504C67.7093 23.5194 65.9679 21.2108 63.7404 19.2752C62.5041 18.3087 61.2678 17.3423 59.9117 16.6222C59.1724 16.2629 58.4344 16.026 57.6951 15.6666C57.3261 15.5482 56.9572 15.4298 56.5868 15.1888C56.2178 15.0704 55.97 14.8281 55.6038 14.9547C55.3587 14.9574 55.2375 15.0813 55.3628 15.3249C55.4921 15.9361 56.2314 16.2955 56.7257 16.6575C57.3438 17.1408 57.9606 17.5015 58.5787 17.9847C59.8136 18.8286 61.0499 19.7951 62.1637 20.7629C64.2686 22.6999 66.0073 24.7634 67.6261 27.0733C68.3736 28.1677 70.2008 27.1673 69.452 25.9504Z" fill="#FF8F6B"/>
<path d="M68.5794 75.1036C67.5733 72.7869 65.2314 71.5877 62.8923 70.6335C60.5531 69.6793 57.8477 68.8516 55.4009 69.2463C53.0754 69.5171 50.5183 71.0157 49.6849 73.2303C49.0899 74.8296 48.503 77.164 49.9871 78.3727C50.7305 79.0996 52.0798 79.2072 52.8069 78.464C54.0201 77.3479 52.8982 75.645 51.9083 74.7984C47.8237 71.1681 40.9682 71.8567 36.4573 73.9895C33.6524 75.2458 31.2246 77.3555 29.7854 80.1894C28.5844 82.4081 27.2799 86.3431 28.8987 88.653C29.1479 89.0178 29.6381 89.0124 29.8791 88.6422C31.2067 86.7897 31.1768 84.0946 32.1354 82.1237C33.0926 80.0302 34.6667 78.2975 36.4926 77.1746C40.2642 74.6824 46.7453 73.3854 50.6965 76.037C51.1908 76.3991 52.5482 77.2417 51.8211 77.9848C51.2152 78.6041 50.2281 78.0025 49.855 77.5165C48.3546 74.8378 51.8758 71.8583 54.0747 71.2213C56.2737 70.5843 58.8538 71.1683 60.9465 72.0028C63.283 72.712 65.9938 74.0296 67.3635 75.9748C67.9789 76.213 68.8313 75.7134 68.5794 75.1036Z" fill="#EF37FF"/>
<path d="M176.16 55.6425C176.283 55.6411 176.281 55.5186 176.159 55.52C176.036 55.5213 176.038 55.6438 176.16 55.6425Z" fill="#3F3937"/>
<path d="M177.24 53.5476C179.28 49.6044 183.523 45.3918 188.318 46.8088C190.039 47.2798 192.262 48.8479 192.042 51.0557C191.935 52.5271 190.209 51.5661 189.589 50.9604C188.101 49.3841 188.805 46.5584 189.275 44.7154C189.983 42.2572 191.55 39.9119 193.617 38.4188C195.318 37.0522 197.64 36.4139 199.72 36.1458C202.046 35.875 204.137 36.5869 206.348 37.0525C207.207 37.1655 207.809 36.1786 207.19 35.5729C205.578 33.8755 202.756 33.6618 200.553 33.9312C198.228 34.202 195.784 34.8417 193.838 36.211C189.945 38.827 187.065 44.3723 187.485 49.0234C187.753 51.1033 190.492 54.9935 192.796 52.7626C193.888 51.7704 193.5 49.9369 192.996 48.7173C192.118 46.8892 190.144 45.6859 188.3 45.2163C182.77 43.8074 178.532 48.51 176.501 53.1883C176.382 53.5572 176.999 53.9179 177.24 53.5476Z" fill="#EF37FF"/>
<path d="M71.2257 48.4875C69.483 46.0564 67.2569 44.2433 64.6699 43.0468C63.3152 42.4492 61.9618 41.9741 60.6111 41.7441C59.383 41.5127 57.5435 41.4105 56.4474 42.0353C56.2037 42.1605 56.2078 42.528 56.4556 42.7703C57.4427 43.3719 58.9145 43.4782 60.0201 43.7109C61.3722 44.0635 62.4791 44.4188 63.7113 45.0177C66.0518 46.0945 68.2752 47.6626 69.89 49.605C70.5108 50.3332 71.8479 49.3382 71.2257 48.4875Z" fill="#FF8F6B"/>
<path d="M43.2547 57.0064C44.3549 56.7492 45.5789 56.6131 46.6818 56.6009C47.2945 56.5941 47.9072 56.5873 48.5199 56.5805C48.8875 56.5764 49.2552 56.5723 49.4989 56.4471C49.7426 56.3219 49.9877 56.3192 50.2314 56.1939C50.4751 56.0687 50.4711 55.7012 50.2246 55.5814C49.9782 55.4616 49.7317 55.3419 49.6078 55.2207C49.3614 55.1009 48.8712 55.1063 48.6248 54.9866C48.0121 54.9933 47.3994 55.0001 46.6655 55.1308C45.4414 55.2669 44.2187 55.5255 42.9974 55.9066C42.2635 56.0372 42.5208 57.137 43.2547 57.0064Z" fill="#FF8F6B"/>
<path d="M173.802 86.1757C177.21 84.0551 180.868 82.2992 184.777 81.1532C186.61 80.6429 188.565 80.1311 190.523 79.8644C191.624 79.7296 192.603 79.5963 193.705 79.4615C194.562 79.452 195.42 79.4425 196.151 79.0669C196.395 78.9416 196.391 78.5741 196.145 78.4543C195.283 78.0963 194.426 78.2283 193.446 78.2392C192.343 78.2514 191.364 78.3848 190.261 78.397C188.179 78.5426 186.1 78.9332 184.023 79.4463C179.867 80.4726 176.211 82.3509 172.81 85.084C172.325 85.5794 173.071 86.5513 173.802 86.1757Z" fill="#FF8F6B"/>
<path d="M166.999 80.4928C169.906 77.3976 173.682 75.2729 177.335 73.1496C179.162 72.1492 181.11 71.0249 183.062 70.1457C184.159 69.6434 185.134 69.1426 186.109 68.6417C187.084 68.1408 188.184 67.8836 189.157 67.2602C189.401 67.135 189.397 66.7674 189.028 66.649C188.045 66.4149 186.946 66.7946 185.967 66.928C184.743 67.0641 183.644 67.4438 182.547 67.946C180.352 68.9505 178.159 70.0775 176.089 71.3256C172.069 73.5755 168.542 75.9425 165.764 79.6489C165.28 80.2668 166.392 80.9896 166.999 80.4928Z" fill="#FF8F6B"/>
<path d="M146.87 22.5194C146.743 22.1533 146.739 21.7858 146.611 21.2971C146.608 21.0521 146.484 20.931 146.483 20.8084C146.482 20.6859 146.48 20.5634 146.356 20.4423C146.355 20.3198 146.233 20.3211 146.231 20.1986C146.107 20.0775 145.983 19.9564 145.861 19.9577C145.738 19.9591 145.617 20.0829 145.496 20.2068C145.497 20.3293 145.375 20.3307 145.376 20.4532C145.377 20.5757 145.379 20.6982 145.38 20.8207C145.383 21.0657 145.386 21.3107 145.511 21.5543C145.515 21.9219 145.642 22.288 145.768 22.6542L145.767 22.5317L145.768 22.6542C145.77 22.7767 145.895 23.0203 146.019 23.1415C146.143 23.2626 146.389 23.3824 146.51 23.2585C146.633 23.2572 146.876 23.1319 146.875 23.0094C146.875 23.0094 146.872 22.7644 146.87 22.5194Z" fill="#030229"/>
<path d="M151.967 40.1056C152.054 36.9192 153.003 34.0907 154.073 31.1384C154.67 29.6616 155.268 28.3072 155.988 26.9515C156.708 25.5958 157.431 24.4852 157.783 23.011C157.78 22.766 157.531 22.4012 157.288 22.649C156.681 23.1458 156.318 23.5173 155.834 24.1353C155.473 24.7519 155.114 25.491 154.753 26.1076C154.034 27.5858 153.315 29.064 152.72 30.6633C151.65 33.6156 151.074 36.93 150.987 40.1165C151.116 40.7277 151.974 40.7182 151.967 40.1056Z" fill="#FF8F6B"/>
<path d="M162.277 19.4083C162.397 19.1619 162.518 19.038 162.638 18.7917C162.638 18.7917 162.639 18.9142 162.517 18.9155C162.517 18.9155 162.516 18.793 162.638 18.7917L162.759 18.6678C162.88 18.544 162.88 18.544 163.002 18.4201C163.243 18.0499 163.608 17.8008 163.849 17.4306C164.09 17.0603 164.454 16.8112 164.695 16.441C164.815 16.1946 165.059 16.0694 165.179 15.8231C165.177 15.7006 165.3 15.6992 165.299 15.5767C165.42 15.4528 165.419 15.3303 165.417 15.2078C165.537 14.9615 165.288 14.5967 164.92 14.6007C164.798 14.6021 164.675 14.6035 164.43 14.6062C164.308 14.6075 164.309 14.73 164.186 14.7314C164.186 14.7314 164.186 14.7314 164.064 14.7327C164.186 14.7314 164.186 14.7314 164.064 14.7327C163.819 14.7355 163.576 14.9832 163.333 15.1084C162.845 15.3589 162.482 15.7304 162.118 16.102C161.754 16.4736 161.391 16.8452 161.151 17.3379C160.91 17.7082 160.548 18.2023 160.43 18.5711C160.189 18.9413 160.318 19.5525 160.811 19.7921C161.547 19.9064 162.036 19.7785 162.277 19.4083Z" fill="#FF8F6B"/>
<path d="M158.242 42.3638C158.599 41.3797 159.08 40.5167 159.436 39.5326C159.793 38.5485 160.151 37.6869 160.631 36.7014C161.111 35.8384 161.468 34.8543 161.949 33.9914C162.429 33.1284 163.155 32.2627 163.267 31.2813C163.263 30.9138 162.894 30.7954 162.649 30.7981C161.671 31.054 161.193 32.162 160.589 32.9038C159.863 33.7695 159.383 34.7549 158.904 35.7404C158.425 36.7259 158.068 37.71 157.713 38.8166C157.596 39.308 157.356 39.8007 157.363 40.4132C157.246 40.9046 157.252 41.5171 157.258 42.0071C157.142 42.621 158.003 42.8565 158.242 42.3638Z" fill="#FF8F6B"/>
<path d="M164.957 28.9349C165.195 28.3196 165.557 27.8256 165.919 27.3315C166.401 26.591 166.637 25.7308 167.12 25.1128C167.604 24.4949 168.214 24.2431 168.821 23.7462C169.428 23.2494 170.035 22.7526 170.641 22.1333C172.945 19.9024 175.619 17.9125 178.42 16.2887C179.151 15.913 179.883 15.5374 180.614 15.1617C181.101 14.9113 181.831 14.4131 181.457 13.8047C180.83 12.5864 178.397 14.2061 177.666 14.5818C174.865 16.2056 172.563 18.559 170.012 20.6701C169.283 21.1682 168.677 21.7875 168.071 22.4069C167.465 23.0262 166.984 23.8891 166.378 24.5084C165.772 25.1278 165.041 25.5034 164.435 26.1227C163.95 26.6182 163.591 27.3573 163.354 28.095C162.875 29.0805 164.356 30.0442 164.957 28.9349Z" fill="#FF8F6B"/>
<path opacity="0.5" d="M106.944 36.0716C107.423 35.0861 107.532 33.8597 107.397 32.7586C107.384 31.5335 107.248 30.3098 106.99 29.21C106.988 28.965 106.498 28.9704 106.5 29.2154C106.39 30.3193 106.402 31.4219 106.416 32.6469C106.427 33.6269 106.439 34.7295 106.081 35.5911C105.842 36.2063 106.706 36.6868 106.944 36.0716Z" fill="#EF37FF"/>
<g opacity="0.5">
<path d="M107.012 20.1432C107 19.0407 107.111 17.9368 106.977 16.9581C106.842 15.8569 106.464 14.881 105.84 13.9077C105.715 13.6641 105.226 13.792 105.353 14.1582C105.865 16.1128 105.888 18.1954 105.911 20.2779C105.795 20.8918 107.021 20.8782 107.012 20.1432Z" fill="#EF37FF"/>
</g>
<path opacity="0.5" d="M101.504 9.66766C101.248 8.69035 100.869 7.71439 100.37 6.8623C100.121 6.4975 99.9926 6.00884 99.7435 5.64405C99.4943 5.27925 99.2411 4.54695 98.7509 4.55238C98.5059 4.5551 98.2608 4.55781 98.1409 4.80418C97.9013 5.29691 98.2744 5.78285 98.5249 6.27015C98.774 6.63495 99.0245 7.12225 99.1512 7.4884C99.6508 8.34049 100.028 9.19395 100.283 10.0488C100.536 10.7811 101.757 10.4 101.504 9.66766Z" fill="#EF37FF"/>
<path opacity="0.5" d="M107.122 7.89011C107.356 6.90736 107.466 5.80347 107.577 4.69957C107.571 4.20956 107.564 3.59704 107.559 3.10702C107.554 2.61701 107.547 2.00449 107.296 1.51719C107.17 1.15103 106.679 1.15647 106.561 1.52534C106.321 2.01807 106.328 2.63059 106.334 3.1206C106.339 3.61062 106.344 4.10064 106.35 4.59065C106.361 5.57068 106.249 6.55207 106.137 7.53346C106.14 7.77847 106.267 8.14462 106.512 8.14191C106.76 8.3842 107.126 8.25762 107.122 7.89011Z" fill="#EF37FF"/>
<path opacity="0.5" d="M111.818 11.3912C112.049 10.1635 112.527 9.05551 113.129 8.06869C113.731 7.08186 114.579 6.21483 115.304 5.22664C115.423 4.98028 115.297 4.61412 115.053 4.73935C113.709 5.1218 112.741 6.2352 112.141 7.34453C111.418 8.45522 111.065 9.80684 110.833 11.0346C110.596 11.7723 111.703 12.1276 111.818 11.3912Z" fill="#EF37FF"/>
<path d="M192.871 59.5002C192.992 59.3764 192.99 59.2539 193.112 59.13C193.231 58.8836 193.351 58.6373 193.349 58.3923C193.346 58.1472 193.344 58.0247 193.464 57.7784L193.463 57.6559C193.462 57.5334 193.46 57.4109 193.459 57.2884C193.456 57.0433 193.453 56.7983 193.328 56.5547C193.325 56.3097 193.202 56.1885 193.078 56.0674C192.827 55.5801 192.333 55.218 191.719 55.1023C191.965 55.2221 192.212 55.3419 192.46 55.5842C192.212 55.3419 191.965 55.2221 191.72 55.2248C191.474 55.105 191.229 55.1077 191.108 55.2316C190.862 55.2343 190.741 55.3582 190.498 55.4834C190.254 55.6086 190.011 55.8563 189.892 56.1027C190.257 55.8536 190.499 55.6059 190.864 55.3568C190.741 55.3582 190.62 55.482 190.498 55.4834C190.254 55.6086 190.01 55.7338 189.889 55.8577C189.768 55.9816 189.647 56.1054 189.525 56.2293C189.527 56.3518 189.404 56.3531 189.406 56.4757C189.407 56.5982 189.286 56.722 189.287 56.8445C189.408 56.7207 189.406 56.4757 189.527 56.3518C189.528 56.4743 189.406 56.4757 189.407 56.5982C189.408 56.7207 189.286 56.722 189.287 56.8445C189.166 56.9684 189.169 57.2134 189.047 57.3373C188.928 57.5836 188.808 57.83 188.812 58.1975C188.692 58.4439 188.819 58.81 188.821 59.055C188.947 59.2987 189.072 59.5423 189.197 59.786C189.322 60.0296 189.57 60.2719 189.817 60.3917C189.94 60.5129 190.186 60.5101 190.309 60.6313C190.678 60.7497 191.169 60.7443 191.535 60.6177C191.656 60.4938 191.901 60.4911 192.022 60.3673C192.51 60.1168 192.751 59.7466 192.871 59.5002Z" fill="#FF8F6B"/>
<path d="M187.988 17.0403C187.987 16.9178 187.864 16.9191 187.863 16.7966C187.739 16.6755 187.615 16.5543 187.614 16.4318C187.614 16.4318 187.49 16.3107 187.367 16.3121C187.121 16.1923 187.119 16.0698 186.75 15.9513C186.628 15.9527 186.381 15.8329 186.259 15.8343C186.136 15.8356 185.891 15.8383 185.891 15.8383L185.525 15.9649C185.281 16.0901 185.16 16.214 185.04 16.4604C184.919 16.5842 184.919 16.5842 184.92 16.7067C184.922 16.8292 184.799 16.8306 184.8 16.9531C184.681 17.1995 184.562 17.5683 184.566 17.9358C184.57 18.3034 184.696 18.547 184.822 18.9132C185.197 19.5216 185.813 19.8823 186.426 19.8755C187.039 19.8687 187.77 19.4931 188.008 18.8778C188.128 18.6315 188.247 18.2626 188.243 17.8951C188.24 17.6501 188.115 17.4064 187.988 17.0403Z" fill="#FF8F6B"/>
<path d="M97.8378 32.7419C96.8208 29.4452 97.2716 25.8871 97.8477 22.5727C97.8449 22.3277 97.5985 22.2079 97.4787 22.4543C96.2899 25.7755 95.9644 29.5772 96.9828 32.9964C96.9896 33.6089 97.9672 33.3531 97.8378 32.7419Z" fill="#030229"/>
</svg>
