<svg width="302" height="302" viewBox="0 0 302 302" fill="none" xmlns="http://www.w3.org/2000/svg">
<circle cx="150.786" cy="150.786" r="100.5" stroke="#5B93FF" stroke-opacity="0.05" stroke-width="15"/>
<path d="M105.982 235.54C102.85 241.463 95.4619 243.781 89.9268 240.005C80.8736 233.83 72.7932 226.299 65.9788 217.656C56.6543 205.83 49.9061 192.185 46.1677 177.596C42.4292 163.008 41.7831 147.799 44.2708 132.946C46.0888 122.091 49.5513 111.602 54.5185 101.834C57.5556 95.8611 65.1481 94.3398 70.7425 98.0272C76.337 101.715 77.7924 109.213 74.9513 115.281C71.736 122.149 69.4604 129.438 68.2016 136.954C66.2728 148.47 66.7738 160.262 69.6724 171.573C72.5709 182.884 77.803 193.463 85.0325 202.632C89.7508 208.617 95.2519 213.913 101.374 218.388C106.783 222.342 109.113 229.616 105.982 235.54Z" fill="#FF8F6B"/>
<path d="M225.177 207.608C231.493 212.432 232.763 221.547 227.143 227.166C210.743 243.561 189.392 254.34 166.187 257.683C142.982 261.026 119.457 256.713 99.096 245.614C92.1176 241.81 90.7635 232.707 95.4609 226.296C100.158 219.885 109.128 218.634 116.282 222.096C130.403 228.928 146.343 231.463 162.083 229.195C177.823 226.927 192.399 219.996 204.017 209.456C209.903 204.115 218.861 202.784 225.177 207.608Z" fill="#FFD66B"/>
<g filter="url(#filter0_d_4_104)">
<path d="M150.786 61.6174C150.786 51.2172 159.28 42.6193 169.523 44.4237C185.271 47.1979 200.287 53.4497 213.44 62.817C231.733 75.846 245.51 94.2542 252.852 115.479C260.194 136.704 260.737 159.69 254.404 181.238C249.851 196.73 241.908 210.925 231.24 222.837C224.301 230.584 212.31 229.072 205.884 220.895C199.458 212.718 201.144 200.982 207.33 192.621C212.211 186.024 215.929 178.585 218.27 170.619C222.394 156.585 222.041 141.615 217.259 127.792C212.477 113.968 203.505 101.98 191.591 93.4943C184.828 88.6775 177.308 85.1255 169.394 82.9546C159.364 80.2032 150.786 72.0176 150.786 61.6174Z" fill="#5B93FF"/>
</g>
<defs>
<filter id="filter0_d_4_104" x="146.786" y="44.1831" width="116" height="191.724" filterUnits="userSpaceOnUse" color-interpolation-filters="sRGB">
<feFlood flood-opacity="0" result="BackgroundImageFix"/>
<feColorMatrix in="SourceAlpha" type="matrix" values="0 0 0 0 0 0 0 0 0 0 0 0 0 0 0 0 0 0 127 0" result="hardAlpha"/>
<feOffset dy="4"/>
<feGaussianBlur stdDeviation="2"/>
<feColorMatrix type="matrix" values="0 0 0 0 0.356863 0 0 0 0 0.576471 0 0 0 0 1 0 0 0 0.24 0"/>
<feBlend mode="normal" in2="BackgroundImageFix" result="effect1_dropShadow_4_104"/>
<feBlend mode="normal" in="SourceGraphic" in2="effect1_dropShadow_4_104" result="shape"/>
</filter>
</defs>
</svg>
