<svg width="640" height="256" viewBox="0 0 640 256" fill="none" xmlns="http://www.w3.org/2000/svg">
<rect width="640" height="256" fill="#E5E5E5"/>
<rect width="1440" height="1047" transform="translate(-310 -333)" fill="#FAFAFB"/>
<rect x="-62" y="-89" width="702" height="408" rx="10" fill="white"/>
<line opacity="0.05" y1="255.5" x2="640" y2="255.5" stroke="#030229"/>
<line opacity="0.05" y1="204.5" x2="640" y2="204.5" stroke="#030229"/>
<line opacity="0.05" y1="153.5" x2="640" y2="153.5" stroke="#030229"/>
<line opacity="0.05" y1="102.5" x2="640" y2="102.5" stroke="#030229"/>
<line opacity="0.05" y1="51.5" x2="640" y2="51.5" stroke="#030229"/>
<line opacity="0.05" y1="0.5" x2="640" y2="0.5" stroke="#030229"/>
<path d="M1 116.5L8.58812 124.274C16.2206 131.758 31.6187 147.742 46.7062 159.149C61.8381 170.992 76.8812 178.258 92.4125 163C107.5 147.742 122.587 108.508 138.119 108.726C153.162 108.508 168.294 147.742 183.381 159.149C198.779 170.992 214 155.008 229.087 163C244.441 170.992 259.706 201.508 274.794 190.101C290.059 178.258 305.413 124.492 320.5 128.125C335.721 131.758 351.119 160.114 366.206 190.847C381.338 221.872 396.381 221.872 411.912 202.472C429.109 183.904 437.505 176.64 455.997 166.413C475.505 157.028 487.794 170.992 502.881 155.226C518.279 139.75 533.5 93.25 548.587 85.4758C563.941 77.9922 579.206 108.508 594.294 112.649C609.559 116.5 624.912 93.25 632.456 81.625L640 70V256H632.412C624.779 256 609.381 256 594.294 256C579.162 256 564.119 256 548.587 256C533.5 256 518.412 256 502.881 256C487.838 256 472.706 256 457.619 256C442.221 256 427 256 411.912 256C396.559 256 381.294 256 366.206 256C350.941 256 335.587 256 320.5 256C305.279 256 289.881 256 274.794 256C259.662 256 244.619 256 229.087 256C214 256 198.912 256 183.381 256C168.338 256 153.206 256 138.119 256C122.721 256 107.5 256 92.4125 256C77.0587 256 61.7937 256 46.7062 256C31.4412 256 16.0875 256 8.54375 256H1V116.5Z" fill="url(#paint0_linear_0_1)"/>
<g filter="url(#filter0_d_0_1)">
<path d="M1 118.789L8.58812 126.946C16.2206 134.798 31.6187 151.569 46.7062 163.537C61.8381 175.963 76.8812 183.587 92.4125 167.578C107.5 151.569 122.587 110.403 138.119 110.632C153.162 110.403 168.294 151.569 183.381 163.537C198.779 175.963 214 159.192 229.087 167.578C244.441 175.963 259.706 207.981 274.794 196.013C290.059 183.587 305.412 127.174 320.5 130.986C335.721 134.798 351.119 164.549 366.206 196.796C381.338 229.347 396.381 229.347 411.912 208.993C429.109 189.51 437.505 181.889 455.997 171.159C475.505 161.311 487.794 175.963 502.881 159.421C518.279 143.183 533.5 94.3944 548.587 86.2376C563.941 78.3856 579.206 110.403 594.294 114.749C609.559 118.789 624.912 94.3944 632.456 82.1972L640 70" stroke="url(#paint1_linear_0_1)" stroke-width="4" stroke-linecap="round"/>
</g>
<g filter="url(#filter1_d_0_1)">
<circle cx="137" cy="111" r="7" fill="white"/>
<circle cx="137" cy="111" r="5.5" stroke="#AE8FF7" stroke-width="3"/>
</g>
<g filter="url(#filter2_d_0_1)">
<circle cx="219" cy="165" r="7" fill="white"/>
<circle cx="219" cy="165" r="5.5" stroke="#AE8FF7" stroke-width="3"/>
</g>
<g filter="url(#filter3_d_0_1)">
<circle cx="320" cy="131" r="7" fill="white"/>
<circle cx="320" cy="131" r="5.5" stroke="#AE8FF7" stroke-width="3"/>
</g>
<g filter="url(#filter4_d_0_1)">
<circle cx="463" cy="169" r="7" fill="white"/>
<circle cx="463" cy="169" r="5.5" stroke="#AE8FF7" stroke-width="3"/>
</g>
<g filter="url(#filter5_d_0_1)">
<circle cx="554" cy="85" r="7" fill="white"/>
<circle cx="554" cy="85" r="5.5" stroke="#AE8FF7" stroke-width="3"/>
</g>
<g filter="url(#filter6_d_0_1)">
<path fill-rule="evenodd" clip-rule="evenodd" d="M286 55C280.477 55 276 59.4772 276 65V101C276 106.523 280.477 111 286 111H314.804L319.134 118.5C319.519 119.167 320.481 119.167 320.866 118.5L325.196 111H355C360.523 111 365 106.523 365 101V65C365 59.4772 360.523 55 355 55H286Z" fill="#030229"/>
</g>
<path opacity="0.8" d="M308.78 75.108C308.204 75.108 307.66 75.04 307.148 74.904C306.644 74.76 306.208 74.552 305.84 74.28C305.712 74.192 305.636 74.088 305.612 73.968C305.588 73.848 305.6 73.736 305.648 73.632C305.704 73.528 305.784 73.46 305.888 73.428C305.992 73.388 306.112 73.412 306.248 73.5C306.608 73.764 306.992 73.952 307.4 74.064C307.808 74.176 308.268 74.232 308.78 74.232C309.5 74.232 310.032 74.1 310.376 73.836C310.728 73.564 310.904 73.208 310.904 72.768C310.904 72.416 310.776 72.136 310.52 71.928C310.272 71.72 309.852 71.556 309.26 71.436L308.012 71.184C307.26 71.024 306.696 70.764 306.32 70.404C305.952 70.036 305.768 69.548 305.768 68.94C305.768 68.436 305.896 67.996 306.152 67.62C306.416 67.244 306.78 66.952 307.244 66.744C307.708 66.536 308.244 66.432 308.852 66.432C309.356 66.432 309.824 66.504 310.256 66.648C310.696 66.784 311.092 66.992 311.444 67.272C311.556 67.36 311.62 67.464 311.636 67.584C311.66 67.696 311.644 67.8 311.588 67.896C311.532 67.992 311.452 68.056 311.348 68.088C311.244 68.112 311.12 68.08 310.976 67.992C310.656 67.744 310.32 67.568 309.968 67.464C309.624 67.36 309.248 67.308 308.84 67.308C308.208 67.308 307.704 67.456 307.328 67.752C306.952 68.04 306.764 68.424 306.764 68.904C306.764 69.288 306.88 69.592 307.112 69.816C307.352 70.04 307.74 70.204 308.276 70.308L309.524 70.572C310.332 70.74 310.928 70.996 311.312 71.34C311.704 71.676 311.9 72.136 311.9 72.72C311.9 73.192 311.772 73.608 311.516 73.968C311.268 74.328 310.908 74.608 310.436 74.808C309.972 75.008 309.42 75.108 308.78 75.108ZM315.131 75.108C314.731 75.108 314.371 75.032 314.051 74.88C313.739 74.72 313.491 74.504 313.307 74.232C313.123 73.96 313.031 73.656 313.031 73.32C313.031 72.896 313.139 72.56 313.355 72.312C313.579 72.064 313.943 71.888 314.447 71.784C314.959 71.672 315.655 71.616 316.535 71.616H316.919V71.244C316.919 70.748 316.815 70.392 316.607 70.176C316.407 69.952 316.083 69.84 315.635 69.84C315.355 69.84 315.071 69.876 314.783 69.948C314.503 70.02 314.211 70.136 313.907 70.296C313.771 70.368 313.655 70.384 313.559 70.344C313.471 70.296 313.407 70.224 313.367 70.128C313.335 70.024 313.335 69.92 313.367 69.816C313.407 69.704 313.487 69.62 313.607 69.564C313.951 69.388 314.295 69.26 314.639 69.18C314.991 69.1 315.323 69.06 315.635 69.06C316.387 69.06 316.943 69.244 317.303 69.612C317.671 69.98 317.855 70.552 317.855 71.328V74.58C317.855 74.916 317.707 75.084 317.411 75.084C317.099 75.084 316.943 74.916 316.943 74.58V73.992C316.791 74.336 316.555 74.608 316.235 74.808C315.923 75.008 315.555 75.108 315.131 75.108ZM315.287 74.376C315.767 74.376 316.159 74.212 316.463 73.884C316.767 73.548 316.919 73.124 316.919 72.612V72.252H316.547C315.899 72.252 315.387 72.284 315.011 72.348C314.643 72.404 314.383 72.508 314.231 72.66C314.087 72.804 314.015 73.004 314.015 73.26C314.015 73.588 314.127 73.856 314.351 74.064C314.583 74.272 314.895 74.376 315.287 74.376ZM321.434 75.108C320.858 75.108 320.418 74.936 320.114 74.592C319.81 74.24 319.658 73.732 319.658 73.068V66.948C319.658 66.62 319.818 66.456 320.138 66.456C320.466 66.456 320.63 66.62 320.63 66.948V72.996C320.63 73.852 320.97 74.28 321.65 74.28C321.722 74.28 321.786 74.276 321.842 74.268C321.898 74.26 321.954 74.256 322.01 74.256C322.098 74.248 322.158 74.268 322.19 74.316C322.23 74.364 322.25 74.46 322.25 74.604C322.25 74.876 322.114 75.032 321.842 75.072C321.778 75.088 321.71 75.096 321.638 75.096C321.566 75.104 321.498 75.108 321.434 75.108ZM325.778 75.108C324.858 75.108 324.13 74.84 323.594 74.304C323.058 73.76 322.79 73.024 322.79 72.096C322.79 71.496 322.91 70.968 323.15 70.512C323.39 70.048 323.718 69.692 324.134 69.444C324.558 69.188 325.046 69.06 325.598 69.06C326.39 69.06 327.01 69.316 327.458 69.828C327.906 70.332 328.13 71.028 328.13 71.916C328.13 72.164 327.99 72.288 327.71 72.288H323.738C323.77 72.952 323.962 73.46 324.314 73.812C324.666 74.156 325.154 74.328 325.778 74.328C326.042 74.328 326.31 74.296 326.582 74.232C326.854 74.16 327.118 74.036 327.374 73.86C327.558 73.74 327.71 73.716 327.83 73.788C327.958 73.86 328.022 73.972 328.022 74.124C328.03 74.268 327.95 74.396 327.782 74.508C327.518 74.7 327.202 74.848 326.834 74.952C326.474 75.056 326.122 75.108 325.778 75.108ZM325.622 69.78C325.07 69.78 324.634 69.952 324.314 70.296C323.994 70.64 323.806 71.092 323.75 71.652H327.29C327.266 71.06 327.11 70.6 326.822 70.272C326.542 69.944 326.142 69.78 325.622 69.78ZM331.505 75.108C331.145 75.108 330.781 75.064 330.413 74.976C330.053 74.88 329.717 74.728 329.405 74.52C329.261 74.432 329.189 74.32 329.189 74.184C329.197 74.04 329.253 73.928 329.357 73.848C329.461 73.768 329.593 73.768 329.753 73.848C330.065 74.04 330.365 74.176 330.653 74.256C330.949 74.328 331.241 74.364 331.529 74.364C331.985 74.364 332.329 74.28 332.561 74.112C332.793 73.944 332.909 73.716 332.909 73.428C332.909 73.204 332.833 73.028 332.681 72.9C332.529 72.764 332.289 72.66 331.961 72.588L330.869 72.348C329.877 72.132 329.381 71.62 329.381 70.812C329.381 70.284 329.589 69.86 330.005 69.54C330.429 69.22 330.981 69.06 331.661 69.06C332.005 69.06 332.337 69.108 332.657 69.204C332.977 69.292 333.265 69.436 333.521 69.636C333.657 69.732 333.717 69.848 333.701 69.984C333.685 70.12 333.621 70.228 333.509 70.308C333.405 70.38 333.277 70.368 333.125 70.272C332.885 70.112 332.641 69.996 332.393 69.924C332.145 69.844 331.901 69.804 331.661 69.804C331.213 69.804 330.873 69.892 330.641 70.068C330.409 70.244 330.293 70.476 330.293 70.764C330.293 71.212 330.589 71.5 331.181 71.628L332.273 71.856C332.785 71.968 333.173 72.148 333.437 72.396C333.701 72.636 333.833 72.964 333.833 73.38C333.833 73.916 333.621 74.34 333.197 74.652C332.773 74.956 332.209 75.108 331.505 75.108Z" fill="white"/>
<path d="M301.096 97C300.552 97 300.28 96.7493 300.28 96.248C300.28 95.9813 300.424 95.6933 300.712 95.384L304.12 91.736C304.643 91.1813 305.016 90.6747 305.24 90.216C305.475 89.7467 305.592 89.2773 305.592 88.808C305.592 87.592 304.877 86.984 303.448 86.984C303.021 86.984 302.605 87.048 302.2 87.176C301.805 87.304 301.416 87.512 301.032 87.8C300.84 87.9387 300.659 87.9867 300.488 87.944C300.328 87.8907 300.2 87.784 300.104 87.624C300.019 87.464 299.987 87.2933 300.008 87.112C300.04 86.92 300.152 86.7547 300.344 86.616C300.781 86.2853 301.288 86.0293 301.864 85.848C302.44 85.6667 303.027 85.576 303.624 85.576C304.787 85.576 305.677 85.8427 306.296 86.376C306.925 86.9093 307.24 87.672 307.24 88.664C307.24 89.336 307.075 89.992 306.744 90.632C306.424 91.272 305.917 91.9547 305.224 92.68L302.424 95.608H307.08C307.571 95.608 307.816 95.8373 307.816 96.296C307.816 96.7653 307.571 97 307.08 97H301.096ZM310.69 98.616C310.53 98.808 310.359 98.8933 310.178 98.872C310.007 98.8507 309.89 98.76 309.826 98.6C309.762 98.4507 309.815 98.264 309.986 98.04C310.114 97.88 310.21 97.7147 310.274 97.544C310.348 97.384 310.402 97.224 310.434 97.064C310.146 97.0427 309.911 96.9413 309.73 96.76C309.559 96.568 309.474 96.328 309.474 96.04C309.474 95.7413 309.564 95.5013 309.746 95.32C309.927 95.128 310.172 95.032 310.482 95.032C310.802 95.032 311.052 95.144 311.234 95.368C311.426 95.5813 311.522 95.8907 311.522 96.296C311.522 96.648 311.463 97.0213 311.346 97.416C311.239 97.8107 311.02 98.2107 310.69 98.616ZM317.591 97.144C316.225 97.144 315.169 96.6587 314.423 95.688C313.687 94.7173 313.319 93.3573 313.319 91.608C313.319 89.6773 313.735 88.1893 314.567 87.144C315.399 86.0987 316.551 85.576 318.023 85.576C318.492 85.576 318.977 85.6613 319.479 85.832C319.991 85.992 320.455 86.2373 320.871 86.568C321.041 86.6853 321.137 86.84 321.159 87.032C321.18 87.2133 321.148 87.384 321.063 87.544C320.977 87.6933 320.849 87.7947 320.679 87.848C320.519 87.9013 320.337 87.8587 320.135 87.72C319.772 87.4533 319.409 87.2667 319.047 87.16C318.695 87.0427 318.343 86.984 317.991 86.984C316.999 86.984 316.236 87.3467 315.703 88.072C315.18 88.7867 314.919 89.8587 314.919 91.288V91.928C315.132 91.2773 315.5 90.7707 316.023 90.408C316.556 90.0347 317.169 89.848 317.863 89.848C318.524 89.848 319.105 90.0027 319.607 90.312C320.119 90.6213 320.519 91.048 320.807 91.592C321.095 92.1253 321.239 92.7387 321.239 93.432C321.239 94.1573 321.084 94.8027 320.775 95.368C320.465 95.9227 320.033 96.36 319.479 96.68C318.935 96.9893 318.305 97.144 317.591 97.144ZM317.495 95.8C318.145 95.8 318.673 95.5867 319.079 95.16C319.484 94.7333 319.687 94.1787 319.687 93.496C319.687 92.8133 319.484 92.2587 319.079 91.832C318.673 91.4053 318.145 91.192 317.495 91.192C316.844 91.192 316.316 91.4053 315.911 91.832C315.505 92.2587 315.303 92.8133 315.303 93.496C315.303 94.1787 315.505 94.7333 315.911 95.16C316.316 95.5867 316.844 95.8 317.495 95.8ZM324.704 97.112C324.406 97.112 324.187 97.0107 324.048 96.808C323.92 96.6053 323.931 96.3493 324.08 96.04L328.752 87.112H323.584C323.094 87.112 322.848 86.8827 322.848 86.424C322.848 85.9547 323.094 85.72 323.584 85.72H329.872C330.107 85.72 330.294 85.784 330.432 85.912C330.582 86.0293 330.656 86.2 330.656 86.424C330.656 86.616 330.63 86.7813 330.576 86.92C330.534 87.0587 330.47 87.2133 330.384 87.384L325.632 96.568C325.451 96.9307 325.142 97.112 324.704 97.112ZM336.378 97.144C335.087 97.144 334.079 96.8667 333.354 96.312C332.639 95.7573 332.282 94.984 332.282 93.992C332.282 93.2987 332.463 92.712 332.826 92.232C333.199 91.7413 333.685 91.4053 334.282 91.224C333.749 91 333.327 90.6587 333.018 90.2C332.709 89.7307 332.554 89.192 332.554 88.584C332.554 87.6453 332.901 86.9093 333.594 86.376C334.287 85.8427 335.215 85.576 336.378 85.576C337.551 85.576 338.485 85.8427 339.178 86.376C339.871 86.9093 340.218 87.6453 340.218 88.584C340.218 89.192 340.058 89.7307 339.738 90.2C339.429 90.6693 339.007 91.0107 338.474 91.224C339.082 91.4053 339.567 91.7413 339.93 92.232C340.293 92.712 340.474 93.2987 340.474 93.992C340.474 94.984 340.111 95.7573 339.386 96.312C338.671 96.8667 337.669 97.144 336.378 97.144ZM336.378 90.632C337.093 90.632 337.647 90.4667 338.042 90.136C338.447 89.7947 338.65 89.3307 338.65 88.744C338.65 88.168 338.447 87.7147 338.042 87.384C337.647 87.0533 337.093 86.888 336.378 86.888C335.663 86.888 335.109 87.0533 334.714 87.384C334.319 87.7147 334.122 88.168 334.122 88.744C334.122 89.3307 334.319 89.7947 334.714 90.136C335.109 90.4667 335.663 90.632 336.378 90.632ZM336.378 95.832C338.074 95.832 338.922 95.1813 338.922 93.88C338.922 92.5893 338.074 91.944 336.378 91.944C335.546 91.944 334.911 92.104 334.474 92.424C334.047 92.744 333.834 93.2293 333.834 93.88C333.834 95.1813 334.682 95.832 336.378 95.832Z" fill="white"/>
<line x1="319.5" y1="255" x2="319.5" y2="138" stroke="#605BFF" stroke-dasharray="2 7"/>
<defs>
<filter id="filter0_d_0_1" x="-5" y="67.9998" width="651" height="165.003" filterUnits="userSpaceOnUse" color-interpolation-filters="sRGB">
<feFlood flood-opacity="0" result="BackgroundImageFix"/>
<feColorMatrix in="SourceAlpha" type="matrix" values="0 0 0 0 0 0 0 0 0 0 0 0 0 0 0 0 0 0 127 0" result="hardAlpha"/>
<feOffset dy="4"/>
<feGaussianBlur stdDeviation="2"/>
<feColorMatrix type="matrix" values="0 0 0 0 0.376471 0 0 0 0 0.356863 0 0 0 0 1 0 0 0 0.17 0"/>
<feBlend mode="normal" in2="BackgroundImageFix" result="effect1_dropShadow_0_1"/>
<feBlend mode="normal" in="SourceGraphic" in2="effect1_dropShadow_0_1" result="shape"/>
</filter>
<filter id="filter1_d_0_1" x="126" y="104" width="22" height="22" filterUnits="userSpaceOnUse" color-interpolation-filters="sRGB">
<feFlood flood-opacity="0" result="BackgroundImageFix"/>
<feColorMatrix in="SourceAlpha" type="matrix" values="0 0 0 0 0 0 0 0 0 0 0 0 0 0 0 0 0 0 127 0" result="hardAlpha"/>
<feOffset dy="4"/>
<feGaussianBlur stdDeviation="2"/>
<feColorMatrix type="matrix" values="0 0 0 0 0.376471 0 0 0 0 0.356863 0 0 0 0 1 0 0 0 0.17 0"/>
<feBlend mode="normal" in2="BackgroundImageFix" result="effect1_dropShadow_0_1"/>
<feBlend mode="normal" in="SourceGraphic" in2="effect1_dropShadow_0_1" result="shape"/>
</filter>
<filter id="filter2_d_0_1" x="208" y="158" width="22" height="22" filterUnits="userSpaceOnUse" color-interpolation-filters="sRGB">
<feFlood flood-opacity="0" result="BackgroundImageFix"/>
<feColorMatrix in="SourceAlpha" type="matrix" values="0 0 0 0 0 0 0 0 0 0 0 0 0 0 0 0 0 0 127 0" result="hardAlpha"/>
<feOffset dy="4"/>
<feGaussianBlur stdDeviation="2"/>
<feColorMatrix type="matrix" values="0 0 0 0 0.376471 0 0 0 0 0.356863 0 0 0 0 1 0 0 0 0.17 0"/>
<feBlend mode="normal" in2="BackgroundImageFix" result="effect1_dropShadow_0_1"/>
<feBlend mode="normal" in="SourceGraphic" in2="effect1_dropShadow_0_1" result="shape"/>
</filter>
<filter id="filter3_d_0_1" x="309" y="124" width="22" height="22" filterUnits="userSpaceOnUse" color-interpolation-filters="sRGB">
<feFlood flood-opacity="0" result="BackgroundImageFix"/>
<feColorMatrix in="SourceAlpha" type="matrix" values="0 0 0 0 0 0 0 0 0 0 0 0 0 0 0 0 0 0 127 0" result="hardAlpha"/>
<feOffset dy="4"/>
<feGaussianBlur stdDeviation="2"/>
<feColorMatrix type="matrix" values="0 0 0 0 0.376471 0 0 0 0 0.356863 0 0 0 0 1 0 0 0 0.17 0"/>
<feBlend mode="normal" in2="BackgroundImageFix" result="effect1_dropShadow_0_1"/>
<feBlend mode="normal" in="SourceGraphic" in2="effect1_dropShadow_0_1" result="shape"/>
</filter>
<filter id="filter4_d_0_1" x="452" y="162" width="22" height="22" filterUnits="userSpaceOnUse" color-interpolation-filters="sRGB">
<feFlood flood-opacity="0" result="BackgroundImageFix"/>
<feColorMatrix in="SourceAlpha" type="matrix" values="0 0 0 0 0 0 0 0 0 0 0 0 0 0 0 0 0 0 127 0" result="hardAlpha"/>
<feOffset dy="4"/>
<feGaussianBlur stdDeviation="2"/>
<feColorMatrix type="matrix" values="0 0 0 0 0.376471 0 0 0 0 0.356863 0 0 0 0 1 0 0 0 0.17 0"/>
<feBlend mode="normal" in2="BackgroundImageFix" result="effect1_dropShadow_0_1"/>
<feBlend mode="normal" in="SourceGraphic" in2="effect1_dropShadow_0_1" result="shape"/>
</filter>
<filter id="filter5_d_0_1" x="543" y="78" width="22" height="22" filterUnits="userSpaceOnUse" color-interpolation-filters="sRGB">
<feFlood flood-opacity="0" result="BackgroundImageFix"/>
<feColorMatrix in="SourceAlpha" type="matrix" values="0 0 0 0 0 0 0 0 0 0 0 0 0 0 0 0 0 0 127 0" result="hardAlpha"/>
<feOffset dy="4"/>
<feGaussianBlur stdDeviation="2"/>
<feColorMatrix type="matrix" values="0 0 0 0 0.376471 0 0 0 0 0.356863 0 0 0 0 1 0 0 0 0.17 0"/>
<feBlend mode="normal" in2="BackgroundImageFix" result="effect1_dropShadow_0_1"/>
<feBlend mode="normal" in="SourceGraphic" in2="effect1_dropShadow_0_1" result="shape"/>
</filter>
<filter id="filter6_d_0_1" x="269" y="52" width="103" height="78" filterUnits="userSpaceOnUse" color-interpolation-filters="sRGB">
<feFlood flood-opacity="0" result="BackgroundImageFix"/>
<feColorMatrix in="SourceAlpha" type="matrix" values="0 0 0 0 0 0 0 0 0 0 0 0 0 0 0 0 0 0 127 0" result="hardAlpha"/>
<feOffset dy="4"/>
<feGaussianBlur stdDeviation="3.5"/>
<feColorMatrix type="matrix" values="0 0 0 0 0.0117647 0 0 0 0 0.00784314 0 0 0 0 0.160784 0 0 0 0.07 0"/>
<feBlend mode="normal" in2="BackgroundImageFix" result="effect1_dropShadow_0_1"/>
<feBlend mode="normal" in="SourceGraphic" in2="effect1_dropShadow_0_1" result="shape"/>
</filter>
<linearGradient id="paint0_linear_0_1" x1="-5.69919" y1="79" x2="640" y2="77.4066" gradientUnits="userSpaceOnUse">
<stop stop-color="#5EC3FF" stop-opacity="0.04"/>
<stop offset="1" stop-color="#FD5DEF" stop-opacity="0.04"/>
</linearGradient>
<linearGradient id="paint1_linear_0_1" x1="-8.27581" y1="70" x2="649.276" y2="70" gradientUnits="userSpaceOnUse">
<stop stop-color="#5BC4FF"/>
<stop offset="1" stop-color="#FF5BEF"/>
</linearGradient>
</defs>
</svg>
