<svg width="77" height="69" viewBox="0 0 77 69" fill="none" xmlns="http://www.w3.org/2000/svg">
<path fill-rule="evenodd" clip-rule="evenodd" d="M38.4068 0.210938C40.6457 22.0439 27.8133 31.1498 24.177 33.2685C24.2071 33.4939 24.2221 33.7343 24.2221 33.9747V65.1239L30.2025 68.4146H61.6522C61.7123 68.4146 61.7874 68.4146 61.8475 68.4296C69.0902 69.4214 69.3757 60.8565 69.3757 59.7896C69.3306 59.2487 69.6311 58.7077 70.157 58.4823C74.6949 56.5289 72.7716 50.3983 72.5912 49.8724C72.3508 49.2563 72.6363 48.5501 73.2374 48.2495C79.1276 45.3946 75.4162 40.2556 74.9353 39.6095C74.5446 39.1888 74.4845 38.5426 74.8001 38.0317C85.4687 21.6683 52.1407 25.7103 50.0069 25.9808C49.8417 26.0108 49.6613 26.0259 49.481 25.9808C48.7748 25.8455 48.324 25.1694 48.4593 24.4631C53.4329 -0.735709 41.968 -0.465239 38.3767 0.180886L38.4068 0.210938Z" fill="#605BFF"/>
<path fill-rule="evenodd" clip-rule="evenodd" d="M22.0884 65.4996V33.9747C22.0884 33.2234 21.7879 32.5472 21.292 32.0664C20.7962 31.5705 20.12 31.27 19.3837 31.27H2.70471C1.9534 31.27 1.27722 31.5705 0.796386 32.0664C0.300523 32.5623 0 33.2384 0 33.9747V65.4996C0 66.2509 0.300523 66.9271 0.796386 67.4079C1.29225 67.9038 1.96843 68.2043 2.70471 68.2043H19.3837C20.135 68.2043 20.8112 67.9038 21.292 67.4079C21.6978 67.0022 21.9682 66.4763 22.0584 65.8903C22.0584 65.8001 22.0584 65.6949 22.0884 65.6048C22.0884 65.5747 22.0884 65.5296 22.0884 65.4996Z" fill="#605BFF"/>
</svg>
